<?xml version="1.0" encoding="utf-8"?>
<!-- Generator: Adobe Illustrator 16.0.3, SVG Export Plug-In . SVG Version: 6.00 Build 0)  -->
<!DOCTYPE svg PUBLIC "-//W3C//DTD SVG 1.1//EN" "http://www.w3.org/Graphics/SVG/1.1/DTD/svg11.dtd">
<svg version="1.1" id="Layer_1" xmlns="http://www.w3.org/2000/svg" xmlns:xlink="http://www.w3.org/1999/xlink" x="0px" y="0px"
	 width="84px" height="84px" viewBox="-26.997 -26.997 84 84" enable-background="new -26.997 -26.997 84 84" xml:space="preserve">
<polygon fill="#3289B7" points="58.003,57.503 -26.997,57.503 -8.997,-27.497 58.003,-27.497 "/>
<path fill="#FFFFFF" d="M23.639,11.124l-3.88,3.88l3.88,3.878c0.54,0.541,0.88,1.291,0.88,2.121c0,1.66-1.34,3-3,3
	c-0.83,0-1.58-0.34-2.12-0.881l-3.88-3.879l-3.88,3.879c-0.54,0.541-1.29,0.881-2.12,0.881c-1.66,0-3-1.34-3-3
	c0-0.83,0.34-1.58,0.88-2.121l3.88-3.878l-3.88-3.88c-0.54-0.54-0.88-1.29-0.88-2.12c0-1.66,1.34-3,3-3c0.83,0,1.58,0.34,2.12,0.88
	l3.88,3.88l3.88-3.88c0.54-0.54,1.29-0.88,2.12-0.88c1.66,0,3,1.34,3,3C24.519,9.833,24.179,10.583,23.639,11.124z"/>
</svg>
