<?xml version="1.0" encoding="utf-8"?>
<!-- Generator: Adobe Illustrator 16.0.3, SVG Export Plug-In . SVG Version: 6.00 Build 0)  -->
<!DOCTYPE svg PUBLIC "-//W3C//DTD SVG 1.1//EN" "http://www.w3.org/Graphics/SVG/1.1/DTD/svg11.dtd">
<svg version="1.1" id="Layer_1" xmlns="http://www.w3.org/2000/svg" xmlns:xlink="http://www.w3.org/1999/xlink" x="0px" y="0px"
	 width="157.5px" height="71.427px" viewBox="0 0 157.5 71.427" enable-background="new 0 0 157.5 71.427" xml:space="preserve">
<g>
	<g>
		<path fill="#21428A" d="M0,48.564l9.76-48.01h9.119l9.74,48.01h-8.138l-1.943-11.149h-8.315L8.262,48.564H0z M11.152,31.722h6.423
			l-3.213-19.733L11.152,31.722z"/>
		<path fill="#21428A" d="M46.227,49.153c-2.064,0-3.89-0.27-5.478-0.786c-1.575-0.517-2.884-1.25-3.925-2.178
			c-1.025-0.928-1.869-2.075-2.513-3.442c-0.656-1.367-1.107-2.842-1.357-4.409c-0.267-1.579-0.393-3.352-0.393-5.313V16.271
			c0-2.081,0.131-3.927,0.396-5.543c0.276-1.614,0.729-3.102,1.371-4.482c0.628-1.379,1.471-2.515,2.497-3.408
			c1.041-0.878,2.344-1.575,3.907-2.088C42.314,0.257,44.139,0,46.227,0c2.396,0,4.436,0.322,6.137,0.962
			c1.701,0.625,3.047,1.566,4.033,2.802c0.98,1.238,1.701,2.676,2.14,4.336c0.44,1.64,0.659,3.567,0.659,5.781v4.102h-8.419v-4.086
			c0-2.397-0.133-4.009-0.375-4.835c-0.514-1.624-1.738-2.488-3.684-2.604c-0.154,0-0.308,0-0.461,0c-0.738,0-1.384,0.09-1.92,0.269
			c-0.553,0.158-1.003,0.446-1.358,0.82c-0.337,0.374-0.629,0.779-0.837,1.194c-0.208,0.436-0.368,0.987-0.483,1.678
			c-0.094,0.686-0.169,1.309-0.194,1.891c-0.037,0.57-0.049,1.315-0.049,2.193v20.34c0,2.813,0.358,4.822,1.066,6.03
			c0.699,1.189,1.955,1.783,3.775,1.783c0.615,0,1.157-0.07,1.628-0.214c0.477-0.141,0.875-0.333,1.197-0.554
			c0.321-0.218,0.581-0.541,0.802-0.943c0.218-0.423,0.392-0.811,0.518-1.159c0.105-0.371,0.196-0.857,0.248-1.5
			c0.067-0.643,0.096-1.179,0.108-1.624c0.012-0.439,0.019-1.046,0.019-1.819v-4.281h8.419v3.928c0,1.797-0.117,3.409-0.373,4.845
			c-0.257,1.426-0.677,2.769-1.285,4.017c-0.606,1.264-1.397,2.298-2.36,3.137c-0.97,0.833-2.208,1.473-3.706,1.95
			C49.954,48.915,48.212,49.153,46.227,49.153z"/>
		<path fill="#21428A" d="M69.943,48.564V7.012H61.89V0.555h24.591v6.458h-7.784v41.552H69.943z"/>
		<path fill="#21428A" d="M90.559,48.564V0.555h8.637v48.01H90.559z"/>
		<path fill="#21428A" d="M114.087,48.564l-9.735-48.01h7.761l6.315,33.414l5.964-33.414h7.933l-9.778,48.01H114.087z"/>
		<path fill="#21428A" d="M137.249,48.564V0.555h20.107v6.173h-11.352v13.771h8.98v6.174h-8.98v15.843H157.5v6.049H137.249z"/>
	</g>
	<g>
		<path fill="#333333" d="M32.304,71.216V55.841h1.788v13.756h6.783v1.619H32.304z"/>
		<path fill="#333333" d="M60.67,71.216h-8.572V55.841h8.572v1.587h-6.784v4.954h6.374v1.578h-6.374v5.657h6.784V71.216z"/>
		<path fill="#333333" d="M81.264,71.216h-8.571V55.841h8.571v1.587H74.48v4.954h6.373v1.578H74.48v5.657h6.783V71.216z"/>
		<path fill="#333333" d="M105.561,63.381c0,2.538-0.689,4.478-2.067,5.821c-1.377,1.343-3.36,2.014-5.947,2.014h-4.26V55.841h4.712
			c2.391,0,4.248,0.662,5.573,1.987S105.561,61.004,105.561,63.381z M103.667,63.444c0-2.007-0.503-3.518-1.51-4.533
			c-1.005-1.017-2.501-1.524-4.485-1.524h-2.598v12.284h2.177c2.131,0,3.734-0.525,4.806-1.573
			C103.131,67.049,103.667,65.498,103.667,63.444z"/>
		<path fill="#333333" d="M126.279,67.125c0,1.354-0.49,2.408-1.473,3.166c-0.98,0.757-2.313,1.136-3.995,1.136
			c-1.823,0-3.226-0.235-4.208-0.704v-1.726c0.632,0.266,1.318,0.476,2.062,0.631c0.744,0.153,1.48,0.231,2.208,0.231
			c1.192,0,2.092-0.226,2.692-0.679c0.604-0.452,0.905-1.081,0.905-1.888c0-0.533-0.106-0.969-0.321-1.309
			c-0.213-0.34-0.569-0.655-1.072-0.941c-0.501-0.288-1.264-0.614-2.287-0.979c-1.431-0.513-2.452-1.118-3.065-1.819
			s-0.921-1.617-0.921-2.745c0-1.185,0.446-2.128,1.336-2.829c0.892-0.701,2.069-1.052,3.533-1.052c1.529,0,2.935,0.28,4.218,0.842
			l-0.558,1.558c-1.269-0.534-2.503-0.801-3.701-0.801c-0.947,0-1.687,0.203-2.221,0.61c-0.531,0.406-0.799,0.97-0.799,1.693
			c0,0.532,0.1,0.969,0.295,1.31c0.196,0.339,0.528,0.652,0.994,0.936c0.467,0.284,1.181,0.598,2.141,0.941
			c1.612,0.574,2.722,1.19,3.327,1.852C125.978,65.218,126.279,66.073,126.279,67.125z"/>
	</g>
</g>
</svg>
