<?xml version="1.0" encoding="utf-8"?>
<!-- Generator: Adobe Illustrator 15.1.0, SVG Export Plug-In . SVG Version: 6.00 Build 0)  -->
<!DOCTYPE svg PUBLIC "-//W3C//DTD SVG 1.1//EN" "http://www.w3.org/Graphics/SVG/1.1/DTD/svg11.dtd">
<svg version="1.1" id="Layer_1" xmlns="http://www.w3.org/2000/svg" xmlns:xlink="http://www.w3.org/1999/xlink" x="0px" y="0px"
	 width="30.007px" height="30.007px" viewBox="0 0 30.007 30.007" enable-background="new 0 0 30.007 30.007" xml:space="preserve">
<path fill="#FFFFFF" d="M11.254,2.814c-4.66,0-8.44,3.78-8.44,8.44s3.78,8.439,8.44,8.439s8.439-3.779,8.439-8.439
	S15.914,2.814,11.254,2.814z M29.184,25.205c0.51,0.51,0.819,1.209,0.819,1.988c0,1.551-1.26,2.811-2.811,2.811
	c-0.779,0-1.479-0.311-1.988-0.819l-8.24-8.25c-1.68,0.989-3.62,1.569-5.71,1.569c-6.21,0-11.25-5.039-11.25-11.25
	c0-6.21,5.04-11.25,11.25-11.25c6.21,0,11.25,5.04,11.25,11.25c0,2.09-0.58,4.029-1.569,5.71L29.184,25.205z"/>
</svg>
