<?xml version="1.0" encoding="utf-8"?>
<!-- Generator: Adobe Illustrator 16.0.3, SVG Export Plug-In . SVG Version: 6.00 Build 0)  -->
<!DOCTYPE svg PUBLIC "-//W3C//DTD SVG 1.1//EN" "http://www.w3.org/Graphics/SVG/1.1/DTD/svg11.dtd">
<svg version="1.1" id="Layer_1" xmlns="http://www.w3.org/2000/svg" xmlns:xlink="http://www.w3.org/1999/xlink" x="0px" y="0px"
	 width="120px" height="32px" viewBox="0 0 120 32" enable-background="new 0 0 120 32" xml:space="preserve">
<path fill="#333333" d="M110.667,30.353c0,0.078,0,0.174-0.029,0.301c-0.023,0.129-0.046,0.225-0.074,0.268
	c-0.234-0.023-0.95-0.033-2.145-0.033h-0.311l-0.031-0.096l0.021-0.81c0.021-0.279,0.031-0.641,0.031-1.079
	c0-0.449-0.013-0.811-0.031-1.088l-0.021-0.821l0.031-0.086h0.66l0.033,0.086c-0.033,0.643-0.054,1.28-0.054,1.909
	c0,0.481,0.01,1.047,0.054,1.687c0.658,0.021,1.149,0.011,1.459-0.044C110.443,30.515,110.572,30.45,110.667,30.353z M67.511,13.087
	l-0.096,0.652l-10.089,4.713c0.15,0.341,0.46,0.896,0.927,1.651c0.853,1.401,2.179,2.093,3.948,2.093
	c2.067,0,3.808-0.918,5.215-2.752c0.214,0.406,0.204,1.023-0.029,1.844c-1.963,1.707-3.874,2.561-5.738,2.561
	c-2.265,0-4.097-0.716-5.506-2.122c-1.419-1.418-2.121-3.2-2.121-5.364c0-2.111,0.66-3.862,1.992-5.249
	c1.41-1.461,3.16-2.198,5.25-2.198c1.887,0,3.425,0.608,4.619,1.811C66.158,11.029,66.701,11.82,67.511,13.087z M64.759,14.1
	c-0.168-0.865-0.489-1.664-0.958-2.399c-0.703-1.122-1.792-1.686-3.273-1.686c-1.324,0-2.284,0.596-2.879,1.78
	c-0.512,1.06-0.778,2.457-0.801,4.182c0,0.587,0.052,1.099,0.158,1.559L64.759,14.1z M81.944,13.087l-0.106,0.652l-10.08,4.713
	c0.149,0.341,0.458,0.896,0.931,1.651c0.849,1.401,2.164,2.093,3.934,2.093c2.066,0,3.817-0.918,5.227-2.752
	c0.21,0.406,0.201,1.023-0.031,1.844c-1.974,1.707-3.884,2.561-5.741,2.561c-2.26,0-4.104-0.716-5.516-2.122
	c-1.406-1.418-2.11-3.2-2.11-5.364c0-2.111,0.661-3.862,1.984-5.249c1.408-1.461,3.169-2.198,5.259-2.198
	c1.878,0,3.414,0.608,4.619,1.811C80.591,11.029,81.134,11.82,81.944,13.087z M79.182,14.1c-0.171-0.865-0.491-1.664-0.958-2.399
	c-0.706-1.122-1.794-1.686-3.267-1.686c-1.321,0-2.291,0.596-2.889,1.78c-0.511,1.06-0.778,2.457-0.801,4.182
	c0,0.587,0.054,1.099,0.163,1.559L79.182,14.1z M36.635,28.595l-0.737,1.132l1.016,1.122h-7.788v-1.58h-1.227v-0.672h8.736V28.595z
	 M12.678,29.717h16.044v2.229H12.678V29.717z M4.72,28.595h8.728v0.662H12.23v1.59H4.435l1.014-1.132L4.72,28.595z M12.648,4.607
	c0-0.173,0.189-0.299,0.435-0.299c0.235,0,0.427,0.126,0.427,0.299c0,0.171-0.191,0.311-0.425,0.311l-0.108-0.01
	c-0.329,0.372-0.362,0.84-0.362,0.84v0.67H8.563c0,0,0.01-0.477,0-0.649c-0.023-0.2-0.277-0.663-0.44-0.852H8.071
	c-0.248,0-0.437-0.14-0.437-0.311c0-0.173,0.189-0.299,0.437-0.299c0.235,0,0.424,0.126,0.424,0.299L8.488,4.66
	c1.001,1.057,1.792,1.185,1.898-0.042h0.396c0.021,1.175,0.628,1.164,1.885,0.075C12.659,4.672,12.648,4.641,12.648,4.607z
	 M10.184,4.193c0-0.171,0.191-0.31,0.425-0.31c0.245,0,0.437,0.139,0.437,0.31c0,0.169-0.192,0.296-0.437,0.296
	C10.378,4.489,10.184,4.362,10.184,4.193z M8.573,6.943c0,0.033-0.033,0.375,0.225,0.483c0.585,0.233,1.673-0.057,2.004,1.482
	c0.021,0.052,0.096,0.072,0.14-0.013C10.898,8,11.418,7.563,12.253,7.349c0.233-0.073,0.458-0.129,0.51-0.267
	c0.042-0.148-0.072-0.672,0.417-0.672c0.064,0,0.225,0.044,0.235,0.204c0.033,0.277-0.191,0.35-0.119,0.447
	c0.087,0.106,0.023,0.212,0.012,0.223c-0.075,0.098-0.116,0.055-0.406,0.182c-0.32,0.141-0.479,0.33-0.522,0.449
	c-0.033,0.106-0.023,0.085,0,0.226c0.011,0.157,0.32,0.232,0.243,0.251c-0.085,0.016-0.253,0.033-0.297,0.087
	c-0.042,0.066-0.202,0.267-0.427,0.29c-0.223,0.03-0.223-0.013-0.383,0.071c-0.435,0.205-0.522,0.524-0.556,0.662
	c-0.019,0.142-0.042,0.173-0.104,0.131c-0.054-0.044-0.012-0.119-0.118-0.268c-0.119-0.151-0.214-0.425-0.543-0.438
	C9.98,8.916,9.553,8.968,9.447,8.82C9.254,8.545,9.085,8.587,9.072,8.511c0-0.042,0.196-0.063,0.173-0.244
	c-0.021-0.194-0.108-0.31-0.429-0.46C8.496,7.658,8.219,7.658,8.167,7.582C8.123,7.507,8.123,7.486,8.145,7.401
	c0.033-0.147,0.014-0.083-0.106-0.191C7.922,7.093,7.978,6.623,8.271,6.644C8.488,6.656,8.573,6.85,8.573,6.943z M9.489,8.448
	c0.023,0.17,0.173,0.29,0.333,0.267c0.158-0.023,0.277-0.169,0.254-0.341c-0.021-0.16-0.158-0.277-0.331-0.256
	C9.586,8.141,9.468,8.288,9.489,8.448z M11.41,8.34c0.021,0.171,0.171,0.29,0.331,0.266c0.16-0.019,0.279-0.17,0.256-0.329
	c-0.021-0.172-0.16-0.289-0.329-0.267C11.506,8.029,11.387,8.184,11.41,8.34z M13.181,15.144l-0.17,0.664
	c-0.075-0.168-0.277-0.108-0.419-0.022l0.256-0.768C13,14.849,13.137,14.891,13.181,15.144z M12.391,17.577
	c-0.233,0.671-0.939,1.431-1.568,1.897c-0.607,0.396-0.106-0.054-0.096-0.085c0.82-0.874,1.066-1.257,1.397-2.035
	C12.263,17.216,12.52,17.354,12.391,17.577z M13.339,12.821v0.693c-0.116-0.129-0.233-0.129-0.352,0v-0.693
	C13.085,12.606,13.236,12.588,13.339,12.821z M12.722,10.837c0.31,0.268,0.351,0.489,0.395,0.745
	c-0.021-0.029-0.277-0.287-0.395-0.021c-0.063-0.236-0.148-0.429-0.319-0.576C12.338,10.975,12.305,10.582,12.722,10.837z
	 M12.02,12.812l0.029,0.691c-0.115-0.116-0.235-0.116-0.339,0.021l-0.034-0.683C11.762,12.619,11.901,12.588,12.02,12.812z
	 M11.177,10.923c0.32,0.246,0.448,0.392,0.543,0.649c-0.023-0.031-0.481-0.396-0.522,0.033c-0.073-0.235-0.16-0.387-0.331-0.512
	C10.79,11.081,10.748,10.698,11.177,10.923z M27.912,4.607c0-0.173,0.191-0.31,0.435-0.31c0.237,0,0.429,0.137,0.429,0.31
	c0,0.034,0,0.052-0.01,0.086c1.247,1.076,1.856,1.099,1.886-0.075h0.385c0.106,1.216,0.895,1.089,1.898,0.042l-0.012-0.052
	c0-0.173,0.204-0.31,0.439-0.31c0.233,0,0.425,0.137,0.425,0.31c0,0.171-0.191,0.311-0.425,0.311l-0.064-0.01
	c-0.161,0.191-0.418,0.647-0.427,0.862c-0.021,0.172,0,0.649,0,0.649h-4.053V5.75c0,0-0.031-0.47-0.373-0.842l-0.098,0.009
	C28.103,4.918,27.912,4.778,27.912,4.607z M30.384,4.181c0-0.159,0.194-0.298,0.427-0.298c0.232,0,0.437,0.139,0.437,0.298
	c0,0.168-0.204,0.308-0.437,0.308C30.578,4.489,30.384,4.35,30.384,4.181z M32.859,6.935c-0.011-0.085,0.085-0.279,0.287-0.3
	c0.3-0.01,0.364,0.46,0.246,0.566c-0.119,0.117-0.15,0.043-0.119,0.192c0.023,0.085,0.023,0.106-0.019,0.191
	c-0.044,0.075-0.333,0.075-0.652,0.222c-0.32,0.14-0.406,0.267-0.424,0.448c-0.025,0.195,0.179,0.206,0.167,0.258
	c0,0.063-0.181,0.033-0.373,0.3c-0.104,0.148-0.533,0.106-0.748,0.115c-0.329,0.013-0.424,0.28-0.533,0.438
	c-0.117,0.149-0.064,0.224-0.129,0.268c-0.052,0.031-0.073,0.011-0.106-0.129c-0.031-0.139-0.117-0.458-0.543-0.672
	c-0.158-0.075-0.173-0.044-0.396-0.063c-0.225-0.033-0.375-0.225-0.427-0.29c-0.043-0.064-0.204-0.071-0.287-0.096
	c-0.088-0.011,0.223-0.085,0.244-0.255c0.01-0.14,0.033-0.107-0.009-0.226c-0.043-0.114-0.191-0.295-0.514-0.436
	c-0.297-0.127-0.329-0.084-0.416-0.182c-0.008-0.022-0.075-0.117,0.01-0.235c0.085-0.097-0.14-0.158-0.114-0.435
	c0.019-0.173,0.171-0.204,0.244-0.204c0.48-0.009,0.362,0.524,0.416,0.672c0.042,0.138,0.267,0.181,0.501,0.267
	C30,7.563,30.522,7.988,30.491,8.896c0.042,0.073,0.106,0.054,0.127,0c0.341-1.534,1.43-1.247,2.017-1.482
	C32.893,7.318,32.849,6.977,32.859,6.935z M29.903,8.34c0.021-0.156-0.094-0.311-0.256-0.329c-0.158-0.022-0.31,0.095-0.329,0.255
	c-0.023,0.167,0.096,0.321,0.256,0.332C29.735,8.618,29.883,8.502,29.903,8.34z M31.827,8.448c0.019-0.168-0.098-0.319-0.258-0.333
	c-0.162-0.019-0.311,0.097-0.331,0.257c-0.021,0.162,0.098,0.311,0.256,0.33C31.654,8.726,31.802,8.606,31.827,8.448z
	 M28.241,15.136c0.043-0.258,0.191-0.289,0.329-0.127l0.267,0.767c-0.138-0.074-0.339-0.151-0.425,0.021L28.241,15.136z
	 M29.029,17.566c-0.117-0.225,0.139-0.351,0.279-0.225c0.319,0.791,0.564,1.164,1.384,2.039c0.013,0.03,0.512,0.49-0.096,0.085
	C29.968,19.008,29.267,18.248,29.029,17.566z M28.093,12.812c0.096-0.224,0.244-0.205,0.339,0.01v0.683
	c-0.104-0.127-0.222-0.127-0.339,0V12.812z M28.698,10.837c0.417-0.256,0.396,0.127,0.321,0.15c-0.16,0.139-0.244,0.329-0.31,0.577
	c-0.127-0.269-0.373-0.01-0.394,0.008C28.359,11.326,28.401,11.093,28.698,10.837z M29.404,12.812
	c0.117-0.224,0.267-0.192,0.354,0.02l-0.044,0.685c-0.108-0.129-0.214-0.14-0.341-0.013L29.404,12.812z M30.257,10.923
	c0.425-0.237,0.373,0.15,0.308,0.158c-0.168,0.137-0.256,0.289-0.331,0.524c-0.053-0.429-0.502-0.066-0.521-0.044
	C29.797,11.314,29.939,11.168,30.257,10.923z M25.84-0.029c1.187,0.199,1.299,0.414,1.366,0.509c0.073,0.237,0.044,0.492,0,0.972
	c0,0.159-0.29,0.416-0.29,0.394c-0.054-0.714-0.14-0.5-0.395-0.725C26.172,0.755,25.905,0.278,25.84-0.029z M34.845,1.398
	c0.354,0.158,0.202,0.684,0.147,0.746c-0.277,0.544-0.801,0.897-1.761,0.93c0.29-0.14,0.716-0.225,0.877-0.94
	C34.214,1.556,34.416,1.269,34.845,1.398z M15.473-0.055c-0.064,0.31-0.331,0.79-0.67,1.153c-0.267,0.225-0.354,0.01-0.406,0.716
	c0,0.03-0.29-0.225-0.29-0.385c-0.042-0.479-0.063-0.734,0-0.968C14.172,0.364,14.289,0.151,15.473-0.055z M6.481,1.375
	C6.91,1.247,7.1,1.538,7.208,2.111c0.169,0.715,0.597,0.799,0.875,0.939c-0.947-0.042-1.48-0.384-1.749-0.928
	C6.279,2.048,6.119,1.538,6.481,1.375z M26.311,1.238c0.192,0.094,0.288,0.289,0.354,0.607c0.04,0.159,0.267,0.244,0.744,0.202
	c-0.094,0.118-0.2,0.193-0.244,0.278C27.036,2.73,26.95,3.188,26.887,3.71c-0.066,0.011-0.139-0.49-0.139-0.49
	c-0.212,0.18-0.489,0.342-0.789,0.49l-0.225,0.085c-0.383,0.354-0.725,0.993-1.237,1.601c-0.289,0.235-0.631,0.244-0.961,0.235
	c-0.073,0.021-0.554-0.106-0.554-0.106c0.011,0.011,0.639-0.256,0.639-0.256c0.161-0.097,0.406-0.225,0.587-0.501
	c0.181-0.333,0.299-0.8,0.341-1.43c0,0-0.066-0.716,0.352-1.12c0.043-0.074,0.098-0.139,0.15-0.255
	c0.064,0.106,0.064,0.149,0.096,0.222c0.14,0.171,0.225,0.246,0.321,0.45c0.01,0.031,0.052,0.042,0.087,0.075
	c-0.022-0.256-0.01-0.47,0.063-0.663C25.745,1.708,26.117,1.365,26.311,1.238z M33.042,1.538c0.414-0.076,0.734,0.029,0.916,0.307
	c-0.011,0.192,0.021,1.185-1.208,1.036c-0.2-0.214-0.468-0.375-0.629-0.32c-0.096,0.116,0,0.245,0.182,0.405
	c0.119,0.15,0.108,0.267,0.108,0.375c-0.852,0.126-1.557-0.428-1.738-1.367c-0.117-0.295-0.47-0.521-0.822-0.744
	c0.735-0.055,1.546,0.083,1.694-0.055c0.267-0.266,0.396-0.318,0.651-0.383c0.106,0,0.533,0.042,0.737,0.129
	c0.202,0,0.417-0.054,0.598-0.14C33.49,1.045,33.328,1.302,33.042,1.538z M8.273,1.515c-0.287-0.235-0.435-0.502-0.491-0.76
	c0.181,0.087,0.396,0.129,0.601,0.129c0.2-0.073,0.626-0.129,0.733-0.114c0.258,0.054,0.396,0.114,0.652,0.374
	c0.149,0.146,0.961,0,1.707,0.063c-0.362,0.222-0.704,0.437-0.822,0.747c-0.191,0.938-0.895,1.492-1.738,1.363
	C8.904,3.211,8.894,3.095,9.01,2.945c0.184-0.16,0.277-0.29,0.184-0.406c-0.162-0.054-0.417,0.105-0.621,0.32
	C7.345,3.008,7.368,2.017,7.357,1.823C7.539,1.546,7.859,1.44,8.273,1.515z M18.908,7.499c-0.044-0.129,0.085-0.192,0.181-0.116
	c0.225,0.424,0.387,0.628,0.938,1.097c0.011,0.023,0.023,0.094-0.063,0.055C19.538,8.279,19.07,7.874,18.908,7.499z M18.397,6.175
	c0.029-0.138,0.127-0.148,0.223-0.064l0.181,0.418c-0.096-0.043-0.235-0.087-0.29,0.01L18.397,6.175z M18.313,4.908
	c0.072-0.119,0.168-0.109,0.235,0.01v0.371c-0.077-0.073-0.15-0.073-0.235,0V4.908z M20.594,17.557c0-0.182,0.139-0.319,0.31-0.319
	c0.181,0,0.321,0.138,0.321,0.319c0,0.17-0.14,0.32-0.321,0.32C20.732,17.876,20.594,17.727,20.594,17.557z M20.485,19.638
	c-0.158,0.158-0.267,0.33-0.311,0.521l-0.008,0.641l0.108,0.395l0.042,1.014c-0.033,0.234-0.364,0.225-0.417,0.297
	c-0.085,0.152-0.043,0.471-0.096,0.651c-0.075,0.244-0.256,0.375-0.277,0.426c-0.041,0.074,0,0.333,0,0.333
	c0.044,0.136,0.021,1.951,0.096,2.067c0.065,0.213,0.106,0.418,0.129,0.608c-0.013,0.212-0.085,0.318-0.225,0.318
	c-0.108,0.023-0.17-0.052-0.193-0.202c0.013-0.393-0.01-0.927-0.063-1.63c-0.01-0.214-0.033-0.416-0.087-0.598l-0.396-0.685
	c-0.042-0.072-0.137-0.17-0.264-0.276l0.108-0.289c0.031-0.138,0.042-0.287,0.031-0.449c0.279-0.01,0.504-0.125,0.67-0.319
	c0.387-0.31,0.171-1.396-0.277-1.672c-0.2-0.144-0.45-0.118-0.757-0.065c-0.362,0.096-0.619,0.224-0.66,0.544
	c-0.034,0.267,0.031,0.361,0.223,0.352c0.191-0.055,0.149-0.201,0.308-0.342c0.193-0.127,0.47-0.116,0.651-0.042
	c0.3,0.192,0.331,0.745,0.233,0.929c-0.169,0.19-0.362,0.225-0.618,0.15c-0.083-0.034-0.235-0.182-0.15-0.334
	c0.119-0.105,0.181-0.086,0.258-0.029c0.104,0.086,0.225,0.086,0.298-0.023c0.072-0.115,0.01-0.242-0.129-0.338
	c-0.108-0.067-0.267-0.076-0.489-0.022c-0.266,0.128-0.375,0.384-0.352,0.619c0.042,0.288,0.171,0.543,0.404,0.564
	c0.033,0.107,0.033,0.202,0.011,0.298c-0.085,0.236-0.181,0.407-0.287,0.523c-0.119,0.064-0.266,0.064-0.45,0.01
	c-0.191-0.107-0.341-0.393-0.437-0.842c-0.073-0.3-0.2-0.502-0.396-0.605c-0.168-0.046-0.264-0.141-0.288-0.289
	c0-0.205,0.204-0.246,0.512-0.215c0.277-0.108,0.342-0.191,0.471-0.479c0.021-0.023,0.116-0.171,0.129-0.192
	c0.031-0.086,0.008-0.183,0-0.268l0.008-0.141c0.075-0.479,0.322-0.414,0.522-0.521c0.023-0.011,0.054-0.041,0.054-0.083
	c-0.021-0.748,0.352-1.058,1.192-1.109c0.3-0.513,0.621-0.685,1.166-0.504V19.638L20.485,19.638z M17.917,24.032
	c0.171-0.031,0.321-0.109,0.437-0.213c0.021,0.072,0.054,0.127,0.098,0.17c-0.043,0.545-0.054,1.108-0.033,1.717l0.077,0.113
	c0.019,0.217,0.019,0.258-0.035,0.344c-0.063,0.043-0.147,0.01-0.191-0.023c-0.119-0.127-0.15-0.212-0.181-0.352
	c-0.044-0.235-0.054-0.532-0.054-0.884c-0.031-0.031-0.075-0.117-0.087-0.226L17.917,24.032z M21.34,18.365
	c0.138-0.117,0.319-0.148,0.523-0.083c0.17,0.127,0.279,0.288,0.351,0.5c0.46-0.054,0.758,0.033,0.908,0.256
	c0.054,0.14,0.054,0.287,0,0.449c0.373,0.223,0.608,0.404,0.704,0.563c0.139,0.203,0.139,0.385-0.012,0.523
	c-0.029,0.098-0.029,0.159,0,0.202l0.354,0.449c0.194,0.233,0.163,0.446-0.073,0.629c-0.056,0.127-0.056,0.223,0.01,0.287
	c0.225,0.471,0.308,0.866,0.267,1.184c-0.085,0.203-0.225,0.215-0.438,0.055l-0.01-1.088c-0.108-0.245-0.396-0.15-0.385,0.108v1.246
	c0.008,0.171,0.064,0.362,0.096,0.499c0.042,0.096,0.023,1.323,0.023,1.323c-0.023,0.226-0.067,0.396-0.129,0.513l-0.289,0.364
	c-0.044,0.009-0.073,0-0.085-0.055c0.117-0.788,0.125-1.482,0.031-2.079l-0.51-1.153c-0.054-0.459-0.077-0.84-0.033-1.163
	c0.106-0.224,0.214-0.374,0.31-0.457c0.086-0.246,0-0.344-0.245-0.298c-0.321,0.243-0.458,0.647-0.427,1.213
	c0.096,0.428,0.132,0.717,0.096,0.846c-0.062,0.052-0.104,0.126-0.117,0.223c-0.064,0.341-0.044,0.661-0.01,0.993l-0.063,1.078
	c-0.077,0.158-0.173,0.265-0.279,0.328c0.01-1.277-0.031-2.057-0.117-2.44c-0.096-0.373-0.181-0.674,0.011-0.918
	c0.077-0.267,0.033-0.491,0.033-0.491l-0.119-0.447c-0.054-0.297-0.031-0.619,0.075-0.981c0.021-0.415-0.129-0.703-0.447-0.884
	v-1.294H21.34z M34.597,14.068c0.023,0.171,0.031,0.331,0.031,0.491l0.439,0.65c-0.013-0.074,0-0.342-0.182-0.619
	C34.801,14.419,34.706,14.239,34.597,14.068z M34.579,15.583c-0.023,0.181-0.054,0.362-0.098,0.533l0.864,0.895l-0.033-0.414
	C35.078,16.287,34.866,15.989,34.579,15.583z M34.289,16.851l-0.149,0.438c0.458,0.448,0.947,0.863,1.471,1.259l-0.033-0.288
	C34.982,17.704,34.587,17.237,34.289,16.851z M33.915,17.844l-0.191,0.438c0.437,0.489,1.151,1.065,2.131,1.707
	c-0.01-0.056,0-0.161-0.021-0.214C35.003,19.028,34.362,18.39,33.915,17.844z M33.511,18.729l-0.354,0.716
	c0.791,0.96,1.817,1.939,3.074,2.945c-0.258-0.48-0.387-0.94-0.447-1.389C35.324,20.725,34.579,19.956,33.511,18.729z
	 M31.088,12.864c0.543-0.8,1.324-1.387,2.188-1.335c0.033-0.127-0.031-0.243-0.202-0.362c-0.193-0.085-0.31-0.052-0.584,0.085
	c-0.429,0.01-0.716-0.075-0.876-0.267c-0.023-0.043,0-0.075,0.052-0.085l0.724-0.277v-0.108c-0.437,0.117-0.897,0.129-1.376,0.054
	c-0.245-0.042-0.393-0.223-0.437-0.554c-0.054-0.116,0.044-0.129,0.117-0.064c0.116,0.181,0.3,0.277,0.543,0.277
	c0.651-0.011,1.037-0.044,1.153-0.106c0.256-0.085,0.406-0.235,0.437-0.459c0.023-0.063-0.008-0.075-0.085-0.052
	c-0.329,0.137-0.427,0.094-0.639,0.085c-0.129,0-0.118-0.075,0.031-0.151c0.577-0.319,0.831-0.715,0.766-1.173
	c0.035-0.086,0.075-0.118,0.119-0.086c0.373,0.682,0.318,1.473-0.106,2.047c-0.031,0.035-0.042,0.068-0.042,0.11l0.064,0.085
	c1.066,1.303,1.782,2.817,2.271,4.522c0.341,1.589,0.716,5.727,1.345,6.86c0.233,0.661,0.522,1.246,0.864,1.791
	c-0.587,0.074-1.226-0.097-1.613-0.233l0.447,3.485l-2.441-0.746l-0.621-1.695c-0.031-0.085-0.085-0.127-0.189-0.055
	C32.782,24.585,32.144,24.5,32.1,24.5c-0.171-0.033-0.223-0.021-0.248,0.064c-0.019,0.15-0.027,0.469-0.008,0.948
	c0.024,0.172,0.137,0.309,0.331,0.418l0.331,0.127c0.162,0.043,0.277,0.129,0.341,0.246c0.052,0.17,0.171,0.33,0.354,0.468
	c0.106,0.032,0.179,0.043,0.159,0.236c-0.023,0.147-0.137,0.233-0.244,0.223c-0.181-0.021-0.321-0.098-0.427-0.234
	c-0.194-0.267-0.439-0.469-0.736-0.608c-0.298-0.16-0.756-0.168-1.314,0c-0.649,0.234-1.192,0.535-1.534,0.866
	c-0.063,0.039-0.106,0.031-0.139-0.013l0.161-0.822c0.043-0.125,0.118-0.223,0.225-0.253l1.792-0.479l0.031-1.293
	c-0.385-0.266-0.662-0.606-0.843-1.013c-0.182-0.702-1.014-1.056-1.014-1.056c-0.319-0.189-0.481-0.33-0.691-0.342l-0.034-0.029
	c-0.16-0.012-0.447-0.012-0.851,0.011c-0.172,0.031-0.301,0.147-0.406,0.352l-0.119,0.329c-0.042,0.163-0.085,0.203-0.233,0.343
	c-0.173,0.064-0.333,0.192-0.46,0.363l-0.044,0.083v0.066c-0.243,0.778-2.344,4.032-5.801,5.377
	c-2.689-0.995-5.237-3.96-5.685-5.333V23.49c-0.042-0.031-0.075-0.087-0.094-0.127c-0.129-0.188-0.279-0.304-0.462-0.368
	c-0.15-0.138-0.192-0.181-0.235-0.339l-0.117-0.342c-0.096-0.206-0.235-0.31-0.406-0.343c-0.393-0.021-0.683-0.031-0.851-0.021
	l-0.023,0.031c-0.215,0.023-0.373,0.16-0.704,0.342c0,0-0.831,0.351-1.012,1.067c-0.181,0.403-0.46,0.735-0.833,1.001l0.031,1.301
	l1.782,0.471c0.104,0.041,0.189,0.127,0.233,0.266l0.148,0.822c-0.029,0.04-0.071,0.04-0.138,0
	c-0.329-0.332-0.885-0.619-1.536-0.854c-0.554-0.181-1.011-0.161-1.301-0.011c-0.311,0.139-0.554,0.34-0.745,0.605
	c-0.098,0.149-0.246,0.226-0.427,0.235c-0.104,0.023-0.225-0.063-0.246-0.212c-0.021-0.202,0.065-0.202,0.169-0.245
	c0.173-0.13,0.292-0.288,0.354-0.468c0.052-0.109,0.171-0.203,0.331-0.246l0.331-0.128c0.192-0.096,0.31-0.235,0.341-0.403
	c0.013-0.491,0.013-0.802-0.021-0.951c-0.011-0.096-0.064-0.108-0.246-0.074c-0.031,0.01-0.683,0.095-0.895-0.034
	c-0.098-0.072-0.16-0.029-0.194,0.056l-0.618,1.686l-2.444,0.746l0.45-3.479c-0.385,0.129-1.014,0.301-1.613,0.226
	c0.343-0.531,0.643-1.131,0.878-1.78c0.628-1.13,1.001-5.27,1.33-6.87c0.504-1.706,1.218-3.211,2.284-4.522l0.052-0.075
	c0.015-0.042-0.011-0.085-0.04-0.116C8.082,9.761,8.04,8.971,8.4,8.299c0.043-0.045,0.087-0.012,0.129,0.084
	C8.455,8.843,8.71,9.227,9.297,9.547c0.14,0.074,0.15,0.149,0.023,0.149C9.105,9.717,9.01,9.759,8.677,9.62
	C8.606,9.588,8.573,9.61,8.594,9.674c0.041,0.212,0.183,0.372,0.437,0.459c0.118,0.052,0.501,0.096,1.153,0.106
	c0.244,0,0.425-0.098,0.543-0.289c0.075-0.065,0.171-0.042,0.117,0.074c-0.042,0.332-0.192,0.512-0.438,0.545
	c-0.479,0.086-0.938,0.063-1.375-0.054v0.107L9.768,10.9c0.054,0.023,0.063,0.054,0.054,0.096c-0.173,0.182-0.46,0.281-0.876,0.269
	c-0.287-0.15-0.406-0.183-0.597-0.096c-0.181,0.127-0.233,0.266-0.181,0.404c0.833-0.052,1.588,0.492,2.132,1.27
	c0.459,0.364,0.664,1.472,0.514,2.369c-0.108,1.994-1.643,4.308-4.619,6.955L5.617,26.28l0.385-0.147l0.406-2.934l0.349-0.141
	l-0.437,2.986l0.993-0.296l1.407-3.648l0.3-0.396l0.373-0.199c0.171-0.056,0.235,0.063,0.171,0.191
	c-0.254,0.244-0.415,0.469-0.489,0.66l-0.416,1.077c-0.108,0.255-0.086,0.459,0.043,0.606c0.096,0.184,0.712,0.173,1.268-0.039
	c0.674-0.45,0.735-0.758,0.906-1.207c0.162-0.404,0.406-0.686,0.736-0.831c0.598-0.513,0.512-1.001,0.512-1.1l0.064-1.419
	c0.021-0.213,0.223-0.842,0.993-2.292c0.789-2.144,1.001-3.874,0.619-5.184c-0.106-0.948-0.543-1.462-1.322-1.545l-1.057,0.062
	c-0.2-0.095-0.34-0.224-0.417-0.394C10.911,9.93,10.942,9.866,11.1,9.899c0.098,0.147,0.237,0.235,0.416,0.244l0.704-0.051
	c0.214-0.024,0.387-0.107,0.485-0.278c0.242-0.34,0.115-0.821,0.146-1.354c0.033-0.268,0.266-0.32,0.375-0.076
	c0.064,0.15,0.054,0.277-0.044,0.373c-0.013,0.557-0.031,0.928-0.17,1.164c-0.129,0.161-0.098,0.256,0.095,0.277
	c0.394,0.246,0.714,0.596,0.939,1.065c0.854,2.209,0.425,4.471-1.197,7.681c-0.191,0.523-0.266,1.152-0.233,1.878l0.008,0.437h1.241
	l0.501-1.791c0.044-0.118,0.129-0.191,0.266-0.226l0.362-0.064v-6.613h3.863c-0.043-0.031,0.127-0.458,0.233-0.51
	c0.106-0.064,1.162-0.258,1.162-0.258v-0.618c0-0.083-0.256-0.244-0.362-0.35c-0.106-0.107-0.223-0.342-0.33-0.524
	c-0.118-0.191-0.247-0.448-0.299-0.523c-0.052-0.072-0.344-0.597-0.429-0.733c-0.085-0.151-0.106-0.417-0.148-0.619
	c-0.043-0.191-0.362-0.704-0.512-0.938c-0.214,0.191-0.308,0.223-0.629,0.362c-0.3,0.076-0.587,0.128-0.886,0.119
	c-0.533-0.054-0.896-0.267-1.076-0.63c-0.119-0.332-0.077-0.684,0.116-1.066c0.031-0.044,0.054-0.044,0.085,0l0.693,0.947
	c0.311,0.31,0.608,0.429,0.982,0.387c0.35-0.087,0.425-0.152,0.619-0.289l-0.106-0.269c-0.096,0.152-0.214,0.246-0.364,0.3
	C17.467,7.414,17.33,7.424,17.2,7.38c-0.17-0.055-0.297-0.118-0.352-0.191c0.075-0.459,0.695-0.788,0.779-0.831
	c0,0,0.054-0.033,0.098-0.043l-0.054-0.202c-0.629-0.021-2.869,0.042-3.958-1.909c-0.512-0.918-0.938-1.994-1.538-2.389
	c-0.438-0.237-0.777-0.214-1.205,0.03c0.235-0.267,0.439-0.436,0.695-0.5c0.212-0.035,0.501,0,0.745,0
	c0.662,0.15,1.526,1.031,1.484,1.001c0.093,0.158,0.212,0.703,0.308,1.279c0.064,0.246,0.385,0.533,0.512,0.736
	c-0.064-0.279-0.083-0.545-0.04-0.768c0.241,0.193,0.392,0.223,0.743,0.362c0.448,0.32,0.67,0.842,1.014,1.311
	c0.258,0.287,0.747,0.48,1.153,0.522l-0.01-0.054L17.552,5.64c-0.223-0.021-0.522-0.063-0.758-0.264
	c-0.48-0.621-0.831-1.259-1.215-1.601L15.356,3.69c-0.302-0.15-0.568-0.308-0.791-0.49c0,0-0.073,0.49-0.139,0.49
	c-0.052-0.521-0.148-0.98-0.267-1.386c-0.052-0.095-0.148-0.16-0.254-0.277c0.479,0.031,0.704-0.042,0.757-0.204
	c0.055-0.318,0.15-0.511,0.35-0.618c0.196,0.142,0.558,0.48,0.695,0.812c0.063,0.201,0.088,0.416,0.063,0.671
	c0.025-0.044,0.066-0.053,0.088-0.074c0.096-0.202,0.181-0.277,0.318-0.448c0.022-0.075,0.022-0.127,0.087-0.223
	c0.065,0.115,0.108,0.181,0.161,0.245c0.416,0.417,0.352,1.129,0.339,1.129c0.055,0.621,0.161,1.101,0.341,1.431
	c0.184,0.267,0.256,0.309,0.427,0.374C17.585,4.3,18.075,3.629,18.3,3.576c0.043-0.009,0.096-0.065,0-0.086
	c-0.171-0.064-0.311-0.202-0.331-0.479c-0.01-0.193-0.085-1.174-0.054-1.28c0.031-0.108,0.204-0.021,0.214,0.033
	c0.021,0.054,0.054,0.756,0.085,1.054c0.042,0.289,0.311,0.481,0.406,0.524c0.096,0.042,0.616,0.011,0.756,0.011
	c0.127,0,0.031-0.033,0.108-0.066c0.085-0.042,0.137-0.042,0.181-0.009c0.052,0.021,0.021,0.158-0.021,0.221
	C19.59,3.575,19.4,3.671,19.236,3.702c-0.156,0.033-0.308-0.031-0.422-0.031c-0.267,0.021-0.387,0.15-0.483,0.246
	c-0.223,0.235-0.342,0.521-0.458,1.024c-0.108,0.5,0.042,1.022,0.138,1.27c0.096,0.253,0.29,0.864,0.458,1.203
	c0.173,0.333,0.406,0.618,0.514,0.833c0.117,0.223,0.127,0.233,0.182,0.577c0.062,0.352,0.639,1.397,0.907,1.779
	c0.267,0.385,0.533,0.427,0.874,0.471c0.342,0.053,0.489-0.098,0.533-0.119c0.043-0.029-0.46-0.949-0.556-1.066
	c-0.083-0.118-0.159-0.129-0.159-0.129s-0.041-0.106,0-0.14c0.031-0.04,0.333,0.033,0.492,0.118c0.15,0.073,0.874,1.843,0.918,1.899
	c0.041,0.064,0.605,0.21,0.639,0.202c0.043-0.01-0.49-1.398-0.481-1.451c0.013-0.065,0.235,0,0.266,0
	c0.036,0,0.491,1.484,0.491,1.484l0.214,0.063c-0.085-0.296-0.321-1.93-0.343-1.95c-1.588-1.068-2.154-1.855-2.535-2.377
	c-0.406-0.556-0.481-1.132-0.492-1.719c-0.01-0.599,0.192-0.799,0.288-0.917l0.056-0.052c0.264-0.287,0.668-0.502,1.116-0.533
	c0-0.053,0.131-0.043,0.225-0.043c0.108,0,0.14-0.019,0.15-0.106c0.01-0.075-0.075-0.127-0.182-0.194
	c-0.108-0.073-0.193,0-0.385,0.042c-0.191,0.058-0.447-0.063-0.522-0.096c-0.064-0.031-0.052-0.063,0.031-0.086
	c0.235-0.052,0.406-0.063,0.514-0.251c-0.429,0.063-1.102,0.071-1.187,0.019c-0.063-0.042-0.2-0.191-0.244-0.267
	c-0.054-0.063,0.019-0.095,0.073-0.095c0.052,0,0.117,0.139,0.246,0.17c0.116,0.031,0.947-0.021,1.109-0.042
	c0.168-0.021,0.266-0.181,0.32-0.236c0.052-0.053,0-0.097-0.064-0.106c-0.075-0.011-0.311,0.053-0.406,0.053
	c-0.085,0-0.096,0-0.096-0.064c0-0.074,0.342-0.202,0.469-0.297c0.119-0.098,0.17-0.323,0.17-0.323s0.033-0.085,0.085-0.071
	c0.055,0.009,0.088,0.147,0.152,0.33c0.063,0.19-0.098,0.596-0.258,0.788c-0.031,0.023-0.085,0.056-0.161,0.075
	c0.067,0.075,0.568,0.693,0.822,1.089c0.108,0.158,0.223,0.362,0.341,0.585l0.106,0.108c0.16,0.254,0.437,0.438,0.853,0.417
	c0.587,0.052,1.056-0.194,1.322-0.493c0.344-0.458,0.577-0.991,1.014-1.31c0.354-0.129,0.506-0.171,0.748-0.352
	c0.042,0.213,0.021,0.489-0.031,0.757c0.127-0.202,0.437-0.481,0.501-0.726c0.096-0.577,0.212-1.13,0.311-1.291
	c-0.042,0.032,0.83-0.854,1.481-1.001c0.244,0,0.533-0.021,0.745,0.011c0.256,0.064,0.46,0.224,0.695,0.49
	c-0.429-0.245-0.77-0.267-1.206-0.022c-0.586,0.383-1.023,1.462-1.534,2.377c-1.101,1.974-3.416,1.932-4.119,1.9l-0.481-0.012
	l0.033,0.098c0.052-0.022,0.214-0.056,0.584,0.106c0.138,0.066,0.693,0.373,0.781,0.822c-0.066,0.083-0.193,0.148-0.354,0.202
	C23.922,7.38,23.718,7.36,23.57,7.295c-0.138-0.042-0.267-0.127-0.375-0.277l0.055,0.298c0.183,0.148,0.254,0.235,0.618,0.309
	c0.364,0.043,0.66-0.074,0.97-0.382l0.695-0.951c0.031-0.042,0.063-0.042,0.083,0c0.198,0.383,0.237,0.737,0.119,1.068
	c-0.182,0.362-0.543,0.574-1.079,0.639c-0.297,0-0.576-0.042-0.887-0.127c-0.244-0.109-0.393-0.171-0.466-0.266
	c0.073,0.478,0.173,0.981,0.256,1.354c0.192,0.875,0.854,1.673,0.896,1.877c0.043,0.2-0.96-0.127-1.022-0.096
	c-0.066,0.029,0.244,1.544,0.192,1.556c-0.065,0.009-1.526-0.34-1.676-0.449c-0.158-0.096-0.256-0.554-0.32-0.608
	c-0.063-0.042-0.117,0.046-0.202,0.107c-0.085,0.075,0.011,0.482,0.096,0.557c0.088,0.083,0.427,0.148,0.512,0.2
	c0.085,0.065,0.14,0.214,0.193,0.246l0.254,0.202l-0.137,0.01h4.137v6.613l0.31,0.054c0.14,0.045,0.223,0.117,0.267,0.226
	l0.504,1.802l1.245-0.011l0.01-0.428c0.034-0.724-0.054-1.353-0.246-1.886c-1.622-3.212-2.036-5.462-1.192-7.681
	c0.235-0.468,0.543-0.821,0.949-1.056c0.181-0.031,0.225-0.129,0.085-0.287c-0.127-0.225-0.16-0.608-0.17-1.153
	c-0.096-0.106-0.106-0.235-0.042-0.383c0.104-0.244,0.341-0.18,0.383,0.087c0.021,0.533-0.108,1.013,0.14,1.353
	c0.106,0.16,0.266,0.256,0.491,0.279l0.693,0.042c0.181-0.01,0.318-0.085,0.414-0.234c0.163-0.043,0.194,0.02,0.096,0.192
	c-0.061,0.159-0.199,0.297-0.414,0.383l-1.06-0.064c-0.766,0.094-1.215,0.608-1.319,1.547c-0.387,1.321-0.175,3.051,0.616,5.195
	c0.778,1.449,0.982,2.067,0.993,2.292l0.063,1.409c0.012,0.105-0.083,0.596,0.514,1.106c0.329,0.141,0.575,0.417,0.735,0.822
	c0.181,0.461,0.236,0.769,0.92,1.219c0.543,0.212,1.162,0.212,1.255,0.031c0.14-0.141,0.15-0.344,0.054-0.6l-0.417-1.079
	c-0.083-0.2-0.245-0.427-0.503-0.669c-0.052-0.118,0-0.236,0.172-0.182l0.375,0.199l0.31,0.397l1.397,3.647l0.991,0.298
	l-0.427-2.987l0.354,0.14l0.404,2.935l0.373,0.148l-0.577-4.115c-2.976-2.647-4.51-4.961-4.619-6.956
	C30.459,14.334,30.651,13.258,31.088,12.864z M22.057,8.831c0.852,0.779,1.661,1.29,1.513,1.141
	c-0.023-0.031-0.215-0.522-0.256-0.607c-0.019-0.052-0.704-0.586-1.109-0.929L22.057,8.831z M22.332,8.063
	c0.395,0.246,0.947,0.639,1.014,0.639c0.031-0.01,0-0.052-0.023-0.104c-0.01-0.044-0.562-0.483-0.913-0.759L22.332,8.063z
	 M22.494,7.499c0.285,0.192,0.716,0.512,0.745,0.523c0.054,0.021-0.013-0.096-0.021-0.149c0-0.042-0.417-0.427-0.664-0.663
	L22.494,7.499z M22.61,6.783l0.522,0.447c0,0,0-0.084-0.044-0.191c-0.033-0.087-0.298-0.417-0.456-0.598L22.61,6.783z M22.589,5.887
	c0.021-0.065,0.329,0.34,0.329,0.34s0.023,0.012-0.043-0.138c-0.086-0.191-0.223-0.406-0.381-0.607
	C22.535,5.619,22.566,5.761,22.589,5.887z M21.053,11.326c-0.214,0.066-0.459-0.031-0.459-0.039c0,0-0.021,0.423-0.011,0.489
	c0,0.064,0.266,0.117,0.31,0.149c0.052,0.032,0.171-0.075,0.171-0.075S21.084,11.528,21.053,11.326z M19.698,12.564h2.314
	c-0.075-0.043-0.341-0.287-0.468-0.257c-0.043,0.014,0.233,0.257,0.233,0.257s-0.395,0-0.447-0.021
	c-0.052-0.012-0.481-0.276-0.554-0.31C20.71,12.201,19.9,12.511,19.698,12.564z M19.099,12.564h0.545
	c-0.029-0.043-0.096-0.172-0.096-0.201C19.546,12.34,19.197,12.511,19.099,12.564z M26.479,19.934v2.753
	c0.173-0.172,0.3-0.372,0.408-0.599c0.148-0.298,0.148-0.767-0.033-1.321C26.736,20.457,26.621,20.183,26.479,19.934z
	 M14.994,22.729V19.86c-0.158,0.268-0.3,0.577-0.416,0.907c-0.194,0.564-0.181,1.022-0.031,1.322
	C14.651,22.347,14.803,22.547,14.994,22.729z M20.316,17.885c-0.564-0.127-0.982,0.078-1.27,0.611
	c-0.81,0.03-1.239,0.427-1.28,1.181c-0.363,0.098-0.556,0.331-0.587,0.737c-0.383,0.032-0.608,0.319-0.683,0.864
	c-0.618,0-0.672,0.949,0.054,1.055c0.158,0.149,0.339,0.491,0.468,0.876c0.171,0.351,0.373,0.681,0.597,0.809
	c-0.021,0.447,0.031,0.758,0.117,0.993l0.074,0.971c0.106,0.244,0.277,0.513,0.545,0.522c0.425-0.03,0.501-0.333,0.362-0.906
	l0.043-1.151c0.073,0.063,0.129,0.191,0.158,0.362c0.067,0.457,0.067,1.14,0.127,2.037c0.163,0.414,0.267,0.362,0.502,0.427
	c0.277-0.021,0.429-0.161,0.489-0.503c0-0.278-0.042-0.512-0.117-0.714c-0.073-0.459-0.096-0.993-0.042-1.57
	c0.01-0.415,0.031-0.691,0.129-0.841c0.181-0.204,0.223-0.362,0.277-0.813c0.042-0.105,0.339-0.084,0.449-0.297
	c0.063-0.331,0.055-0.789-0.022-1.431c-0.116-0.297-0.147-0.575-0.096-0.841c0.021-0.203,0.129-0.299,0.343-0.289
	c0.181-0.01,0.308,0.108,0.362,0.352c0.008,0.246,0,0.462-0.044,0.673c-0.044,0.246-0.01,0.672,0.171,1.046
	c0.021,0.087-0.021,0.201,0.01,0.287c-0.052,0.18-0.158,0.277-0.191,0.661c0,0.214,0.117,0.576,0.117,0.576
	c0.127,0.278,0.191,0.962,0.191,2.067c-0.075,0.118-0.108,0.278,0.012,0.45c0.277,0.148,0.404,0.129,0.67-0.031
	c0.116-0.141,0.202-0.288,0.267-0.459c0.042-0.716,0.042-1.259-0.021-1.632c0.008-0.087,0.042-0.128,0.106-0.128
	c0.127,0.201,0.204,0.416,0.256,0.641c-0.009,1.15-0.129,1.813-0.096,2.066c0.052,0.16,0.202,0.247,0.524,0.226
	c0.233-0.105,0.639-0.745,0.639-0.745c0.086-0.48,0.096-1.036,0.021-1.655c-0.011-0.13-0.011-0.2,0.022-0.353
	c0.031-0.104,0.042-0.127,0.116-0.139c0.311,0.074,0.523-0.084,0.65-0.479c0.023-0.192,0.023-0.469-0.021-0.81
	c-0.021-0.202-0.073-0.373-0.194-0.505c0.3-0.497,0.225-0.98-0.222-1.458c0.16-0.6-0.085-1.058-0.725-1.366
	c0.021-0.597-0.32-0.886-1.034-0.874c-0.117-0.374-0.439-0.556-0.97-0.545c0.052-0.545-0.054-0.928-0.607-1.003
	C20.818,16.83,20.05,16.874,20.316,17.885z M18.183,16.478L17.777,15.2l1.08-0.789h-1.336l-0.417-1.28l-0.404,1.28h-1.334
	l1.076,0.789l-0.415,1.278l1.076-0.788L18.183,16.478z M21.777,16.478L21.361,15.2l1.076-0.789h-1.322l-0.417-1.28l-0.416,1.28
	h-1.324l1.078,0.789l-0.417,1.278l1.078-0.788L21.777,16.478z M25.414,16.478L25,15.2l1.076-0.789h-1.334l-0.404-1.28l-0.414,1.28
	h-1.334l1.076,0.789l-0.404,1.278l1.076-0.788L25.414,16.478z M7.911,18.741c-1.065,1.226-1.813,1.993-2.271,2.26
	c-0.065,0.459-0.192,0.908-0.437,1.4c1.246-1.016,2.271-1.985,3.059-2.945L7.911,18.741z M7.495,17.854
	c-0.437,0.545-1.076,1.184-1.909,1.921c-0.012,0.053,0,0.158-0.012,0.214c0.972-0.631,1.676-1.218,2.123-1.696L7.495,17.854z
	 M7.135,16.863c-0.3,0.383-0.683,0.841-1.293,1.406l-0.021,0.278c0.512-0.384,1.003-0.8,1.461-1.248L7.135,16.863z M6.855,15.583
	c-0.297,0.406-0.501,0.704-0.747,1.014l-0.021,0.414l0.852-0.882C6.91,15.945,6.877,15.764,6.855,15.583z M6.833,14.047
	c-0.104,0.181-0.202,0.364-0.287,0.545c-0.181,0.277-0.181,0.554-0.181,0.629l0.437-0.66C6.814,14.389,6.824,14.217,6.833,14.047z
	 M20.283,2.197c0,0.127,0.098,0.224,0.227,0.224c0.117,0,0.223-0.097,0.223-0.224s-0.105-0.225-0.223-0.225
	C20.381,1.973,20.283,2.068,20.283,2.197z M18.3,1.132c-0.011,0.063,0.013,0.115,0.066,0.158c0.042,0.056,0.147,0.085,0.285,0.139
	L19.039,1.6c0.114,0.052,0.214,0.021,0.318,0.14c0.096,0.106,0.139,0.223,0.172,0.318c0.031,0.108,0.031,0.204,0.086,0.342
	c0.043,0.128,0.021,0.182,0.085,0.211c0.073,0.031,0.117,0.023,0.159-0.029c0.043-0.044,0.066-0.17,0.087-0.266
	c0.009-0.088,0.052-0.228,0.15-0.344c0.096-0.127,0.331-0.277,0.555-0.321c0.223-0.03,0.296-0.01,0.477-0.052
	c0.193-0.054,0.289-0.073,0.32-0.171c0.023-0.098,0.031-0.212-0.106-0.256c-0.14-0.03-0.885-0.277-1.536-0.254
	c-0.637,0.021-1.268,0.148-1.334,0.137C18.354,1.055,18.3,1.132,18.3,1.132z M18.822,2.102c0,0.116,0.108,0.223,0.225,0.223
	c0.129,0,0.223-0.106,0.223-0.223c0-0.129-0.096-0.235-0.223-0.235C18.928,1.867,18.822,1.973,18.822,2.102z M17.288,0.715
	c0,0,1.948-0.245,2.387-0.254c0.438-0.014,1.27,0.147,1.611,0.212c0.352,0.063,1.023,0.021,1.065,0.052
	c0.044,0.043,0.117,0.129,0.013,0.214c-0.11,0.083-0.535,0.339-0.535,0.435c0,0.108,0.022,0.181-0.042,0.235
	c-0.075,0.041-0.14,0-0.354,0.107c-0.212,0.097-0.362,0.202-0.406,0.288c-0.042,0.076-0.063,0.054-0.052,0.16
	c0.011,0.096,0.106,0.171,0.052,0.211c-0.042,0.043-0.073,0-0.115,0.043c-0.043,0.043-0.181,0.182-0.354,0.182
	c-0.17,0-0.17-0.031-0.299,0.011c-0.339,0.116-0.437,0.352-0.466,0.447c-0.033,0.108-0.054,0.129-0.098,0.086
	c-0.04-0.03-0.021-0.074-0.096-0.203c-0.064-0.115-0.182-0.382-0.342-0.404c-0.16-0.033-0.445-0.044-0.555-0.119
	c-0.096-0.085-0.212-0.085-0.2-0.17c0.019-0.084,0.117-0.084,0.117-0.223c0-0.15-0.054-0.3-0.289-0.438
	c-0.225-0.139-0.458-0.181-0.492-0.235c-0.021-0.066,0-0.074,0.023-0.14c0.031-0.064,0.093-0.041-0.023-0.085
	c-0.116-0.031-0.447-0.108-0.52-0.181c-0.066-0.074-0.119-0.212-0.088-0.225C17.255,0.703,17.288,0.715,17.288,0.715z
	 M44.049,12.886c0,2.89,0.075,6.078,0.223,9.556c1.983,0.087,3.307,0.129,3.948,0.129c1.746,0,3.06-0.169,3.934-0.491
	c0.619-0.234,1.109-0.66,1.482-1.259l0.385,0.127c0.021,0.278-0.075,0.757-0.29,1.442c-0.21,0.681-0.416,1.183-0.586,1.502
	c-1.214-0.127-4.811-0.192-10.792-0.192h-1.12l-0.191-0.49l0.213-4.438c0.064-1.525,0.106-3.486,0.106-5.886
	c0-1.599-0.159-4.236-0.159-4.236l-0.107-1.74l0.191-0.492h2.891l0.191,0.492l-0.085,1.696
	C44.282,8.606,44.049,11.468,44.049,12.886z M97.708,23.307l-0.18,0.447h-2.525l-0.229-0.447v-1.421
	c-1.068,1.334-2.46,1.994-4.199,1.994c-2.063,0-3.809-0.725-5.27-2.176c-1.453-1.448-2.177-3.208-2.177-5.278
	c0-2.048,0.724-3.796,2.188-5.26c1.459-1.449,3.22-2.174,5.278-2.174c1.802,0,3.274,0.576,4.408,1.75
	c0-2.593-0.075-2.263-0.227-6.124l0.227-0.45h2.527l0.182,0.45c-0.194,3.255-0.29,3.68-0.29,8.384
	C97.421,16.097,97.517,19.54,97.708,23.307z M95.002,14.453c-0.601-2.912-2.316-4.361-5.133-4.361c-1.111,0-2.027,0.49-2.741,1.481
	c-0.726,0.993-1.087,2.262-1.087,3.82c0,0.362,0.027,0.736,0.094,1.131c0.217,1.845,0.769,3.383,1.674,4.597
	c0.908,1.227,1.983,1.834,3.223,1.834c0.854,0,1.644-0.267,2.368-0.8c0.727-0.522,1.227-1.249,1.503-2.178
	C94.947,18.602,94.98,16.757,95.002,14.453z M110.615,19.315c0,1.44-0.576,2.604-1.739,3.456c-1.054,0.822-2.32,1.237-3.805,1.237
	c-1.487,0-2.775-0.31-3.862-0.938l-2.006-0.778c0-1.322,0.106-2.284,0.331-2.879c0.833,1.332,1.56,2.188,2.152,2.559
	c1.145,0.685,2.265,1.036,3.361,1.036c0.776,0,1.516-0.267,2.229-0.778c0.789-0.566,1.192-1.205,1.192-1.942
	c0-0.866-0.352-1.567-1.053-2.111c-0.502-0.403-1.397-0.755-2.697-1.067c-1.56-0.382-2.594-0.701-3.104-0.936
	c-1.09-0.494-1.814-1.239-2.153-2.231c-0.171-0.5-0.259-0.991-0.259-1.491c0-0.674,0.269-1.354,0.802-2.038
	c0.479-0.63,1.14-1.09,1.994-1.364c0.643-0.194,1.567-0.289,2.783-0.289c0.576,0,1.568,0.151,2.984,0.449
	c0.791,0.181,1.582,0.339,2.368,0.491c0.066,1.557,0.018,2.751-0.156,3.593c-0.876-1.321-1.631-2.184-2.272-2.592
	c-0.908-0.606-1.942-0.906-3.115-0.906c-0.811,0-1.405,0.107-1.793,0.32c-0.918,0.522-1.376,1.163-1.376,1.909
	c0,0.629,0.342,1.153,1.024,1.559c0.62,0.393,1.621,0.777,2.999,1.15c1.376,0.375,2.303,0.683,2.773,0.927
	C109.814,16.522,110.615,17.739,110.615,19.315z M44.582,27.946l-0.256,0.008c-0.191-0.499-0.576-0.755-1.174-0.755
	c-0.396,0-0.724,0.15-0.993,0.46c-0.277,0.307-0.417,0.684-0.417,1.118c0,0.491,0.16,0.918,0.47,1.28
	c0.298,0.352,0.629,0.534,0.991,0.534c0.564,0,0.959-0.15,1.182-0.438l0.152,0.226c-0.171,0.201-0.333,0.351-0.491,0.425
	c-0.215,0.108-0.512,0.161-0.887,0.161c-0.543,0-1.024-0.204-1.438-0.609c-0.427-0.403-0.641-0.916-0.641-1.503
	c0-0.525,0.202-0.993,0.628-1.407c0.417-0.406,0.897-0.618,1.432-0.618c0.296,0,0.647,0.084,1.042,0.235
	c0.119,0.041,0.235,0.052,0.341,0.031l0.055,0.031v0.821H44.582z M48.772,27.038c-0.042,0.64-0.052,1.259-0.052,1.866
	c0,0.504,0.01,1.122,0.052,1.848l-0.052,0.136h-0.629l-0.054-0.136l0.031-0.824c0.022-0.266,0.022-0.605,0.022-1.023
	c0-0.405-0.01-1.024-0.054-1.866l0.054-0.128h0.629L48.772,27.038z M55.909,27.253l-1.016-0.022l-0.648,0.011
	c-0.033,0.523-0.041,1.078-0.041,1.663c0,0.524,0.008,1.153,0.041,1.888l-0.033,0.096h-0.662l-0.044-0.096l0.044-0.81
	c0-0.277,0.013-0.641,0.013-1.078c0-0.438-0.013-0.789-0.023-1.055l-0.031-0.619H52.88l-1.003,0.022
	c0.021-0.172,0.044-0.28,0.075-0.343h0.043h1.054h0.429h0.417h0.468h0.468h0.959h0.052C55.876,26.975,55.891,27.081,55.909,27.253z
	 M62.265,26.963l-0.447,0.642c-0.225,0.33-0.545,0.801-0.981,1.429v0.118l0.064,1.641l-0.042,0.096h-0.675l-0.027-0.096
	c0.027-0.864,0.051-1.405,0.051-1.641v-0.183c-0.331-0.468-0.66-0.938-1.014-1.396l-0.414-0.609l0.031-0.053h0.641l0.085,0.053
	l0.329,0.566c0.276,0.502,0.545,0.937,0.789,1.323c0.171-0.234,0.418-0.664,0.758-1.28l0.333-0.609l0.085-0.053h0.405L62.265,26.963
	z M73.839,27.946l-0.257,0.008c-0.181-0.499-0.576-0.755-1.174-0.755c-0.396,0-0.727,0.15-0.993,0.46
	C71.139,27.966,71,28.343,71,28.777c0,0.491,0.16,0.918,0.471,1.28c0.297,0.352,0.628,0.534,0.991,0.534
	c0.565,0,0.97-0.15,1.184-0.438l0.147,0.226c-0.17,0.201-0.328,0.351-0.488,0.425c-0.213,0.108-0.503,0.161-0.874,0.161
	c-0.555,0-1.036-0.204-1.451-0.609c-0.425-0.403-0.641-0.916-0.641-1.503c0-0.525,0.205-0.993,0.628-1.407
	c0.42-0.406,0.896-0.618,1.43-0.618c0.31,0,0.653,0.084,1.045,0.235c0.121,0.041,0.238,0.052,0.344,0.031l0.055,0.031V27.946
	L73.839,27.946z M81.199,28.894c0,0.556-0.225,1.048-0.686,1.472c-0.447,0.427-0.946,0.642-1.492,0.642
	c-0.574,0-1.088-0.215-1.523-0.63c-0.427-0.425-0.651-0.919-0.651-1.483c0-0.566,0.225-1.055,0.681-1.493
	c0.449-0.438,0.951-0.659,1.494-0.659c0.564,0,1.066,0.222,1.514,0.649C80.974,27.826,81.199,28.327,81.199,28.894z M80.535,28.894
	c-0.021-0.489-0.191-0.917-0.521-1.267c-0.32-0.365-0.672-0.546-1.058-0.546c-0.422,0-0.768,0.181-1.055,0.532
	c-0.29,0.363-0.415,0.778-0.384,1.28c0.011,0.491,0.182,0.905,0.515,1.271c0.318,0.362,0.668,0.542,1.054,0.542
	c0.414,0,0.757-0.18,1.044-0.534C80.419,29.813,80.546,29.385,80.535,28.894z M87.447,26.996c-0.043,0.257-0.063,0.884-0.063,1.908
	v0.715c-0.025,0.244-0.129,0.503-0.32,0.77c-0.248,0.363-0.587,0.554-1.014,0.563c-0.406,0.022-0.705-0.01-0.918-0.096
	c-0.279-0.104-0.48-0.234-0.6-0.395c-0.114-0.169-0.2-0.448-0.233-0.864l-0.01-0.693c0-1.034-0.023-1.663-0.066-1.908l0.031-0.086
	h0.641l0.044,0.086l-0.044,0.822c-0.009,0.276-0.021,0.638-0.021,1.086c0,0.277,0.012,0.48,0.021,0.59
	c0.022,0.211,0.056,0.37,0.097,0.488c0.141,0.417,0.482,0.628,1.027,0.628c0.169,0,0.351-0.064,0.544-0.201
	c0.157-0.116,0.278-0.267,0.363-0.447c0.053-0.13,0.094-0.31,0.112-0.544l0.011-0.514c0-0.447-0.011-0.81-0.019-1.085l-0.033-0.823
	l0.033-0.085h0.385L87.447,26.996z M94.007,30.792l-0.043,0.096h-0.759l-0.104-0.096c-0.076-0.127-0.162-0.254-0.258-0.383
	l-0.274-0.362c-0.217-0.33-0.557-0.81-1.004-1.462l-0.352-0.467c-0.033,0.266-0.054,0.532-0.054,0.786
	c0,0.524,0.021,1.153,0.054,1.888l-0.033,0.096h-0.372l-0.045-0.096l0.045-0.81c0.012-0.277,0.012-0.641,0.012-1.078l-0.023-0.841
	l-0.033-0.802v-0.266l0.045-0.086h0.438c0.171,0.3,0.381,0.631,0.621,0.97c0.23,0.365,0.569,0.885,1.04,1.569l0.674,0.928
	l0.009-0.288c0.011-0.308,0.021-0.702,0.021-1.185c0-0.447-0.01-0.81-0.021-1.085l-0.042-0.823l0.042-0.085h0.373l0.043,0.085
	c-0.043,0.643-0.063,1.28-0.063,1.908C93.945,29.429,93.964,30.057,94.007,30.792z M100.589,27.946l-0.257,0.008
	c-0.191-0.499-0.576-0.755-1.173-0.755c-0.396,0-0.725,0.15-0.993,0.46c-0.275,0.307-0.414,0.684-0.414,1.118
	c0,0.491,0.158,0.918,0.466,1.28c0.302,0.352,0.631,0.534,0.993,0.534c0.566,0,0.973-0.15,1.187-0.438l0.147,0.226
	c-0.173,0.201-0.328,0.351-0.491,0.425c-0.212,0.108-0.502,0.161-0.87,0.161c-0.56,0-1.041-0.204-1.455-0.609
	c-0.424-0.403-0.639-0.916-0.639-1.503c0-0.525,0.199-0.993,0.631-1.407c0.414-0.406,0.896-0.618,1.428-0.618
	c0.31,0,0.649,0.084,1.043,0.235c0.118,0.041,0.237,0.052,0.343,0.031l0.053,0.031v0.821H100.589z M104.782,27.038
	c-0.045,0.64-0.055,1.259-0.055,1.866c0,0.504,0.01,1.122,0.055,1.848l-0.055,0.136h-0.618l-0.064-0.136l0.033-0.824
	c0.021-0.266,0.029-0.605,0.029-1.023c0-0.405-0.021-1.024-0.063-1.866l0.063-0.128h0.62L104.782,27.038z"/>
</svg>
