<?xml version="1.0" encoding="utf-8"?>
<!-- Generator: Adobe Illustrator 16.0.3, SVG Export Plug-In . SVG Version: 6.00 Build 0)  -->
<!DOCTYPE svg PUBLIC "-//W3C//DTD SVG 1.1//EN" "http://www.w3.org/Graphics/SVG/1.1/DTD/svg11.dtd">
<svg version="1.1" id="Layer_1" xmlns="http://www.w3.org/2000/svg" xmlns:xlink="http://www.w3.org/1999/xlink" x="0px" y="0px"
	 width="41px" height="52px" viewBox="0 0 41 52" enable-background="new 0 0 41 52" xml:space="preserve">
<path display="none" fill-rule="evenodd" clip-rule="evenodd" fill="#89C23F" d="M30.59,3.714v7.084c0,0-5.223-0.521-6.53,1.481
	c-0.715,1.093-0.29,4.296-0.353,6.596h6.925c-0.585,2.689-1.005,4.513-1.435,6.84h-5.53v22.01h-9.595
	c0.002-7.005-0.002-14.498,0-21.924H9.989v-6.926h4.038c0.206-5.063,0.285-10.08,2.8-12.635C19.654,3.37,22.351,3.714,30.59,3.714"
	/>
<path display="none" fill-rule="evenodd" clip-rule="evenodd" fill="#89C23F" d="M-152.41,3.714v7.084c0,0-5.223-0.521-6.53,1.481
	c-0.715,1.093-0.29,4.296-0.353,6.596h6.925c-0.585,2.689-1.005,4.513-1.435,6.84h-5.53v22.01h-9.595
	c0.002-7.005-0.002-14.498,0-21.924h-4.083v-6.926h4.038c0.206-5.063,0.285-10.08,2.8-12.635
	C-163.346,3.37-160.649,3.714-152.41,3.714"/>
<path fill-rule="evenodd" clip-rule="evenodd" fill="#01ACA3" d="M28.933,7.903c2.998-0.061,4.595,1.182,6.119,2.761
	c1.294-0.126,2.975-0.948,3.966-1.52c0.32-0.199,0.642-0.399,0.962-0.6c-0.565,1.74-1.332,3.099-2.511,4.132
	c-0.262,0.229-0.522,0.54-0.85,0.686v0.022c1.679-0.021,3.064-0.882,4.381-1.35v0.022c-0.69,1.249-1.627,2.517-2.626,3.426
	c-0.401,0.363-0.805,0.727-1.207,1.091c0.021,2.021-0.026,3.952-0.359,5.651c-1.934,9.879-7.056,16.586-15.164,19.459
	c-2.912,1.032-7.617,1.455-10.954,0.514c-1.654-0.467-3.149-0.993-4.551-1.691c-0.779-0.387-1.501-0.806-2.19-1.283
	c-0.228-0.158-0.454-0.314-0.681-0.471c0.753,0.025,1.633,0.261,2.475,0.107c0.761-0.141,1.508-0.104,2.208-0.279
	c1.752-0.438,3.308-1.015,4.647-1.905c0.648-0.432,1.634-0.939,2.095-1.563c-0.869,0.018-1.657-0.212-2.303-0.472
	c-2.504-1.005-3.962-2.854-4.911-5.63c0.76,0.094,2.946,0.319,3.456-0.171c-0.955-0.061-1.873-0.689-2.53-1.156
	c-2.014-1.433-3.657-3.837-3.644-7.535c0.262,0.143,0.528,0.285,0.792,0.428c0.506,0.243,1.021,0.372,1.625,0.515
	c0.254,0.059,0.765,0.229,1.058,0.105H8.196c-0.39-0.515-1.023-0.859-1.417-1.412c-1.292-1.827-2.503-4.638-1.736-7.985
	c0.194-0.85,0.503-1.598,0.831-2.291c0.013,0.007,0.024,0.015,0.037,0.022c0.15,0.358,0.486,0.621,0.699,0.921
	c0.66,0.93,1.474,1.766,2.304,2.504c2.827,2.513,5.374,4.059,9.461,5.202c1.038,0.291,2.237,0.512,3.476,0.514
	c-0.348-1.152-0.236-3.017,0.038-4.132c0.688-2.803,2.187-4.824,4.382-5.908c0.525-0.259,1.107-0.448,1.718-0.599
	C28.302,7.989,28.618,7.946,28.933,7.903"/>
<path display="none" fill-rule="evenodd" clip-rule="evenodd" fill="#89C23F" d="M28.102,24.408l11.263-10.912
	c0.319,0.314,0.518,0.75,0.518,1.234v21.969c0,0.456-0.18,0.868-0.468,1.178L28.102,24.408z M3.459,13.446
	c0.308-0.277,0.71-0.451,1.157-0.451h33.531c0.447,0,0.85,0.173,1.157,0.451L21.382,27.448L3.459,13.446z M3.35,37.876
	c-0.288-0.31-0.468-0.722-0.468-1.178V14.729c0-0.483,0.198-0.919,0.517-1.234l11.265,10.912L3.35,37.876z M21.382,30.917
	l4.703-4.557l13.252,11.595c-0.312,0.295-0.729,0.478-1.189,0.478H4.616c-0.461,0-0.879-0.183-1.189-0.478L16.679,26.36
	L21.382,30.917z"/>
</svg>
