<?xml version="1.0" encoding="utf-8"?>
<!-- Generator: Adobe Illustrator 16.0.3, SVG Export Plug-In . SVG Version: 6.00 Build 0)  -->
<!DOCTYPE svg PUBLIC "-//W3C//DTD SVG 1.1//EN" "http://www.w3.org/Graphics/SVG/1.1/DTD/svg11.dtd">
<svg version="1.1" id="Layer_1" xmlns="http://www.w3.org/2000/svg" xmlns:xlink="http://www.w3.org/1999/xlink" x="0px" y="0px"
	 width="41px" height="52px" viewBox="0 0 41 52" enable-background="new 0 0 41 52" xml:space="preserve">
<path display="none" fill-rule="evenodd" clip-rule="evenodd" fill="#89C23F" d="M30.59,3.714v7.084c0,0-5.223-0.521-6.53,1.481
	c-0.715,1.093-0.29,4.296-0.353,6.596h6.925c-0.585,2.689-1.005,4.513-1.435,6.84h-5.53v22.01h-9.595
	c0.002-7.005-0.002-14.498,0-21.924H9.989v-6.926h4.038c0.206-5.063,0.285-10.08,2.8-12.635C19.654,3.37,22.351,3.714,30.59,3.714"
	/>
<path display="none" fill-rule="evenodd" clip-rule="evenodd" fill="#89C23F" d="M28.102,24.408l11.263-10.912
	c0.319,0.314,0.518,0.75,0.518,1.234v21.969c0,0.456-0.18,0.868-0.468,1.178L28.102,24.408z M3.459,13.446
	c0.308-0.277,0.71-0.451,1.157-0.451h33.531c0.447,0,0.85,0.173,1.157,0.451L21.382,27.448L3.459,13.446z M3.35,37.876
	c-0.288-0.31-0.468-0.722-0.468-1.178V14.729c0-0.483,0.198-0.919,0.517-1.234l11.265,10.912L3.35,37.876z M21.382,30.917
	l4.703-4.557l13.252,11.595c-0.312,0.295-0.729,0.478-1.189,0.478H4.616c-0.461,0-0.879-0.183-1.189-0.478L16.679,26.36
	L21.382,30.917z"/>
<g>
	<path fill-rule="evenodd" clip-rule="evenodd" fill="#ED164F" d="M33.993,36.384h-3.82v1.876c0,0.527,0.06,0.889,0.193,1.096
		c0.133,0.202,0.36,0.301,0.676,0.301c0.33,0,0.563-0.089,0.695-0.257c0.128-0.173,0.198-0.553,0.198-1.14v-0.449h2.058v0.508
		c0,1.021-0.252,1.792-0.755,2.311c-0.498,0.513-1.249,0.77-2.241,0.77c-0.894,0-1.604-0.271-2.116-0.819
		c-0.509-0.543-0.771-1.298-0.771-2.261v-4.476c0-0.858,0.286-1.565,0.849-2.113c0.567-0.542,1.293-0.814,2.187-0.814
		c0.913,0,1.618,0.253,2.112,0.756c0.488,0.508,0.735,1.229,0.735,2.172V36.384z M27.063,39.069c0,0.705-0.157,1.243-0.468,1.623
		c-0.312,0.375-0.771,0.563-1.357,0.563c-0.396,0-0.746-0.07-1.046-0.218c-0.308-0.144-0.593-0.369-0.854-0.677v0.766h-2.019V27.624
		h2.019v4.348c0.271-0.301,0.558-0.533,0.854-0.691c0.306-0.157,0.611-0.236,0.922-0.236c0.632,0,1.115,0.208,1.451,0.637
		c0.331,0.424,0.498,1.046,0.498,1.86V39.069z M19.814,41.127H17.82v-1.091c-0.37,0.399-0.755,0.711-1.155,0.918
		c-0.399,0.218-0.784,0.321-1.159,0.321c-0.464,0-0.805-0.148-1.042-0.449c-0.231-0.297-0.351-0.735-0.351-1.333v-8.331h1.995v7.646
		c0,0.231,0.044,0.404,0.123,0.508c0.089,0.109,0.227,0.158,0.414,0.158c0.143,0,0.331-0.069,0.553-0.207
		c0.228-0.139,0.435-0.32,0.622-0.533v-7.571h1.994V41.127z M13.235,29.588h-2.329v11.539H8.655V29.588h-2.33v-1.964h6.91V29.588z
		 M33.031,25.087H7.969c-3.982,0-7.21,3.223-7.21,7.19v5.779c0,3.974,3.228,7.191,7.21,7.191h25.063c3.982,0,7.21-3.218,7.21-7.191
		v-5.779C40.241,28.31,37.014,25.087,33.031,25.087z"/>
	<path fill="#ED164F" d="M31.063,32.658c-0.321,0-0.549,0.093-0.687,0.275c-0.138,0.179-0.203,0.474-0.203,0.894v1.008h1.763v-1.008
		c0-0.42-0.07-0.715-0.212-0.894C31.59,32.751,31.362,32.658,31.063,32.658z"/>
	<path fill="#ED164F" d="M24.172,32.628c-0.138,0-0.281,0.03-0.425,0.094c-0.138,0.064-0.276,0.168-0.409,0.307v6.204
		c0.163,0.163,0.321,0.286,0.474,0.354c0.153,0.069,0.311,0.108,0.483,0.108c0.242,0,0.425-0.074,0.538-0.212
		c0.113-0.144,0.173-0.369,0.173-0.687v-5.147c0-0.335-0.069-0.592-0.212-0.765S24.443,32.628,24.172,32.628z"/>
	<polygon fill="#ED164F" points="11.251,21.627 13.783,21.627 13.783,15.458 16.729,6.752 14.158,6.752 12.589,12.699 
		12.431,12.699 10.787,6.752 8.235,6.752 11.251,15.734 	"/>
	<path fill-rule="evenodd" clip-rule="evenodd" fill="#ED164F" d="M19.227,13.079c0-0.237,0.084-0.429,0.257-0.582
		c0.173-0.148,0.396-0.217,0.672-0.217c0.296,0,0.538,0.069,0.72,0.217c0.183,0.153,0.271,0.345,0.271,0.582v5.982
		c0,0.291-0.089,0.523-0.267,0.69c-0.183,0.168-0.424,0.252-0.725,0.252c-0.302,0-0.528-0.079-0.691-0.247
		c-0.158-0.168-0.237-0.4-0.237-0.696V13.079z M20.159,21.904c1.021,0,1.826-0.267,2.408-0.8c0.583-0.538,0.874-1.269,0.874-2.211
		v-5.666c0-0.834-0.301-1.525-0.894-2.053c-0.592-0.528-1.356-0.794-2.284-0.794c-1.021,0-1.841,0.251-2.443,0.755
		c-0.606,0.503-0.908,1.175-0.908,2.029v5.69c0,0.933,0.296,1.668,0.883,2.221C18.388,21.627,19.178,21.904,20.159,21.904z"/>
	<path fill="#ED164F" d="M26.832,21.785c0.424,0,0.859-0.119,1.304-0.351c0.454-0.232,0.883-0.572,1.297-1.021v1.214h2.246V10.656
		h-2.246v8.331c-0.212,0.237-0.443,0.434-0.69,0.587c-0.257,0.153-0.464,0.232-0.632,0.232c-0.207,0-0.365-0.06-0.454-0.178
		c-0.094-0.114-0.147-0.301-0.147-0.563v-8.41h-2.246v9.17c0,0.656,0.133,1.145,0.396,1.465
		C25.924,21.623,26.313,21.785,26.832,21.785z"/>
</g>
</svg>
